HIERARCHY
ROOT pelvis
{
  OFFSET 0 100 0
  CHANNELS 6 Xposition Yposition Zposition Zrotation Xrotation Yrotation
  JOINT pelvis_right_femur
  {
    OFFSET -10.78128 -3.44521 -0.5502486
    CHANNELS 3 Zrotation Xrotation Yrotation
    JOINT right_femur_tibia
    {
      OFFSET -0.8047443 -44.0398 -0.1307829
      CHANNELS 3 Zrotation Xrotation Yrotation
      JOINT right_tibia_foot
      {
        OFFSET 3.006224 -47.83518 -5
        CHANNELS 3 Zrotation Xrotation Yrotation
        End Site
        {
          OFFSET 0 -5 15
        }
      }
    }
  }
  JOINT pelvis_left_femur
  {
    OFFSET 10.78128 -3.44521 -0.5502486
    CHANNELS 3 Zrotation Xrotation Yrotation
    JOINT left_femur_tibia
    {
      OFFSET 0.8047443 -44.0398 -0.1307829
      CHANNELS 3 Zrotation Xrotation Yrotation
      JOINT left_tibia_foot
      {
        OFFSET -4.370144 -48.10324 -4.275266
        CHANNELS 3 Zrotation Xrotation Yrotation
        End Site
        {
          OFFSET 0 -5 15
        }
      }
    }
  }
  JOINT pelvis_spine1
  {
    OFFSET 0 6.468898 -3.129235
    CHANNELS 3 Zrotation Xrotation Yrotation
    JOINT spine1
    {
      OFFSET 0 23.15396 4.99043
      CHANNELS 3 Zrotation Xrotation Yrotation
      JOINT spine2
      {
        OFFSET 0 20.79997 -5.064912
        CHANNELS 3 Zrotation Xrotation Yrotation
        JOINT neck
        {
          OFFSET 0 14.38658 9.616178
          CHANNELS 3 Zrotation Xrotation Yrotation
          End Site
          {
            OFFSET 0 20 0
          }
        }
      }
      JOINT right_manubrium
      {
        OFFSET -5.722621 16.35077 3.967754
        CHANNELS 3 Zrotation Xrotation Yrotation
        JOINT right_clavicle
        {
          OFFSET -13.16364 1.694482 -4.693211
          CHANNELS 3 Zrotation Xrotation Yrotation
          JOINT right_humerus
          {
            OFFSET -28.5034 -0.3100689 -2.792744
            CHANNELS 3 Zrotation Xrotation Yrotation
            JOINT right_radius
            {
              OFFSET -25.15693 0.02248979 -1.271978
              CHANNELS 3 Zrotation Xrotation Yrotation
              End Site
              {
                OFFSET -15 0 0
              }
            }
          }
        }
      }
      JOINT left_manubrium
      {
        OFFSET 5.722621 16.35077 3.967754
        CHANNELS 3 Zrotation Xrotation Yrotation
        JOINT left_clavicle
        {
          OFFSET 13.16364 1.694482 -4.693211
          CHANNELS 3 Zrotation Xrotation Yrotation
          JOINT left_humerus
          {
            OFFSET 29.39168 -1.063119 -2.237045
            CHANNELS 3 Zrotation Xrotation Yrotation
            JOINT left_radius
            {
              OFFSET 24.59957 -0.9528479 0.9047498
              CHANNELS 3 Zrotation Xrotation Yrotation
              End Site
              {
                OFFSET 15 -0 -0
              }
            }
          }
        }
      }
    }
  }
}
MOTION
Frames: 7
Frame Time: 0.0416666666667
0 103.5113 0 0.1452724 -1.850104 0.007706175 0.5599189 -5.68554 12.18295 -0 30.38126 -0 -10.05418 -14.01216 0.2378856 -4.860199 10.59349 -20.28424 -0 5.764317 -0 8.769859 -16.16389 24.72711 -1.529058 -3.866577 7.368632 0.6487212 10.3607 -6.189658 2.823069 21.96047 6.163046 2.250896 -25.49813 9.455572 9.067405 -17.68887 15.09864 79.20621 29.21207 -16.95171 -0 0 22.15841 -9.797633 8.658614 2.075909 7.760978 -22.81537 -3.844137 -99.86529 26.1916 28.68864 0 0 -14.60565 10.5421 22.85148 4.868746
0.5329599 103.3977 0.8526533 0.1332591 -1.846499 0.005323647 1.015494 -9.390424 12.31561 -0 36.31845 -0 -9.73638 -13.00368 -0.4975492 -5.122354 11.30494 -20.0493 -0 5.435372 -0 8.464979 -16.63558 24.52142 -2.154675 -2.770706 6.757506 0.9582795 10.41458 -6.674495 2.806246 21.45333 6.474881 2.567663 -26.1581 9.625634 8.994771 -17.95985 14.84976 79.19476 29.36291 -16.89782 -0 0 21.74492 -9.88632 8.686119 2.177881 7.789545 -22.86643 -3.776849 -99.22189 25.98041 28.09374 0 0 -15.96703 10.54607 22.76888 4.754744
0.8568056 103.2832 1.903972 0.1204719 -1.86453 -0.10458 1.919177 -13.33186 11.82983 -0 40.30689 -0 -9.584507 -12.36409 -1.307455 -5.295677 12.0984 -19.6871 -0 5.108575 -0 8.059901 -17.15202 24.31554 -2.749243 -1.569943 6.309633 1.179016 10.46475 -7.072993 2.900284 20.97902 6.730926 2.933668 -26.69344 9.824906 8.91065 -18.07502 14.54085 79.51967 29.5375 -17.11953 -0 0 21.14008 -9.926195 8.737471 2.231828 7.760897 -23.18202 -3.494419 -98.3473 25.74991 27.35499 0 0 -17.19674 10.62699 22.54238 4.594908
1.225252 103.3833 3.229893 0.1060354 -1.924216 -0.4241572 2.656811 -17.2044 10.71896 -0 41.61551 -0 -9.553432 -11.65465 -2.11175 -5.534118 13.14361 -19.21097 -0 4.938195 -0 7.487754 -17.67295 23.99084 -3.363556 -0.2746955 6.120531 1.553402 10.36893 -7.3923 2.959744 20.47827 7.04852 3.276159 -27.2276 10.09815 8.672921 -17.97418 14.2554 80.1167 29.75803 -17.67807 -0 0 20.27104 -9.883795 8.81725 2.218647 8.069431 -23.63812 -3.220164 -97.43146 25.52993 26.441 0 0 -18.74724 10.70937 22.19272 4.286182
1.52772 103.4036 4.86453 0.09002789 -2.013267 -0.8942676 3.432637 -20.75272 9.238874 -0 40.3671 -0 -9.554818 -10.45611 -2.747042 -5.808649 14.32764 -18.60968 -0 4.847624 -0 6.849617 -18.28215 23.58042 -3.860251 1.019927 6.114177 1.862051 10.12378 -7.605005 2.932088 20.01725 7.398717 3.558812 -27.64729 10.34774 8.272268 -17.76444 13.94692 80.96294 30.02356 -18.46105 -0 0 19.21741 -9.750538 8.931755 2.154334 8.569864 -24.31224 -2.713334 -96.45532 25.21063 25.28964 0 0 -20.68665 10.95234 21.73186 3.771094
1.759401 103.1294 6.747282 0.07608012 -2.063801 -1.177767 4.112397 -23.73959 8.067973 -0 36.15043 -0 -9.395325 -9.164844 -2.807028 -6.051335 15.52204 -17.97871 -0 4.975748 -0 6.252585 -19.08437 23.0508 -4.224815 2.40069 6.148116 2.121822 9.759848 -7.799702 2.815141 19.51477 7.739565 3.751938 -27.94925 10.51741 7.782409 -17.42159 13.63603 82.12127 30.31513 -19.42569 -0 0 18.06877 -9.507666 9.087755 2.091677 9.278926 -25.2281 -1.98032 -95.42166 24.80052 23.93025 0 0 -23.07409 11.33226 21.18412 3.023115
2.060055 102.5925 9.025504 0.06609709 -2.065606 -1.217104 4.661037 -26.19839 7.32244 -0 30.46133 -0 -9.180128 -7.793033 -2.484733 -6.323365 16.75489 -17.3484 -0 5.412048 -0 5.666701 -20.02406 22.29847 -4.433074 3.503977 6.115654 2.426038 9.440234 -8.098416 2.608787 19.20185 8.097166 3.884587 -28.07999 10.64322 7.227705 -17.11548 13.28194 83.27929 30.6366 -20.4588 -0 0 16.79985 -9.227303 9.278982 2.026344 9.979839 -26.03251 -1.321304 -94.40921 24.30405 22.32453 0 0 -25.75323 11.75728 20.56353 2.115154
